<?xml version="1.0" encoding="UTF-8" standalone="no"?>
<!-- Created with Inkscape (http://www.inkscape.org/) -->

<svg
   version="1.1"
   id="svg1"
   width="1024"
   height="1024"
   viewBox="0 0 1024 1024"
   xml:space="preserve"
   xmlns:xlink="http://www.w3.org/1999/xlink"
   xmlns="http://www.w3.org/2000/svg"
   xmlns:svg="http://www.w3.org/2000/svg"><defs
     id="defs1"><linearGradient
       id="linearGradient3753"><stop
         style="stop-color:#2e71b0;stop-opacity:1;"
         offset="0"
         id="stop3751" /><stop
         style="stop-color:#4c95d8;stop-opacity:1;"
         offset="0.73813343"
         id="stop3752" /><stop
         style="stop-color:#2e71b0;stop-opacity:1;"
         offset="1"
         id="stop3753" /></linearGradient><linearGradient
       id="linearGradient3729"><stop
         style="stop-color:#2e71b0;stop-opacity:1;"
         offset="0"
         id="stop3732" /><stop
         style="stop-color:#4c95d8;stop-opacity:1;"
         offset="0.37070939"
         id="stop3729" /><stop
         style="stop-color:#2e71b0;stop-opacity:1;"
         offset="1"
         id="stop3730" /></linearGradient><linearGradient
       id="linearGradient3727"><stop
         style="stop-color:#d9ecf6;stop-opacity:1;"
         offset="0"
         id="stop3727" /><stop
         style="stop-color:#afd4eb;stop-opacity:1;"
         offset="1"
         id="stop3728" /></linearGradient><linearGradient
       id="linearGradient3714"><stop
         style="stop-color:#f7a69e;stop-opacity:1;"
         offset="0"
         id="stop3714" /><stop
         style="stop-color:#ac302a;stop-opacity:1;"
         offset="1"
         id="stop3715" /></linearGradient><linearGradient
       xlink:href="#linearGradient3714"
       id="linearGradient3715"
       x1="497.1315"
       y1="271.729"
       x2="497.1315"
       y2="790.16302"
       gradientUnits="userSpaceOnUse"
       gradientTransform="matrix(1.0970167,0,0,1.0970167,-48.192993,-51.324258)" /><linearGradient
       xlink:href="#linearGradient3727"
       id="linearGradient3728"
       x1="1009.1574"
       y1="17.380096"
       x2="8.203413"
       y2="1016.5787"
       gradientUnits="userSpaceOnUse" /><linearGradient
       xlink:href="#linearGradient3729"
       id="linearGradient3732"
       x1="563.60687"
       y1="448.04007"
       x2="567.02704"
       y2="451.40237"
       gradientUnits="userSpaceOnUse" /><linearGradient
       xlink:href="#linearGradient3753"
       id="linearGradient3751"
       x1="700.55377"
       y1="176.62708"
       x2="720.79944"
       y2="195.67958"
       gradientUnits="userSpaceOnUse" /><clipPath
       clipPathUnits="userSpaceOnUse"
       id="clipPath3814"><path
         id="path3814"
         style="color:#000000;display:inline;opacity:0.25;fill:#1a1a1a;stroke-width:1.01177;stroke-linecap:round;stroke-linejoin:round;-inkscape-stroke:none"
         d="m 786.55242,166.75652 c -5.98051,-0.3922 -11.92182,1.6445 -16.40697,5.70766 l -51.56754,46.71839 0.002,1.7e-4 c -14.68085,13.30042 -22.20231,32.75186 -20.2744,52.43886 l 4.52562,46.20514 a 6.9814762,6.9579465 4.9481608 0 0 0.009,0.0792 c 0.0486,0.44531 0.12401,0.88041 0.19982,1.3151 l -220.2435,191.64311 a 22.841742,22.764759 4.9481608 0 0 -2.17503,32.11961 22.841742,22.764759 4.9481608 0 0 32.22856,2.18447 L 732.07941,354.41165 c 1.27023,0.6191 2.59494,1.15964 4.02444,1.52075 a 6.9814762,6.9579465 4.9481608 0 0 0.0807,0.0188 l 45.06426,10.82575 c 19.36456,4.65277 39.80923,-0.0845 55.11954,-12.77182 l 53.40934,-44.2613 c 13.29206,-11.01538 8.87962,-33.15603 -7.63013,-38.28911 l -42.23749,-13.13351 a 6.9814762,6.9579465 4.9481608 0 0 -0.01,-0.003 c -9.16733,-2.83596 -18.78597,-3.26437 -28.01992,-1.50056 3.02477,-8.85238 3.92457,-18.38742 2.3704,-27.80934 a 6.9814762,6.9579465 4.9481608 0 0 1.6e-4,-0.002 l -7.21959,-43.73297 c -1.51916,-9.1999 -8.71712,-16.5097 -17.91695,-18.19918 l -0.002,-1.6e-4 c -0.85188,-0.15626 -1.70591,-0.26171 -2.56026,-0.31771 z" /></clipPath></defs><g
     id="g1"
     style="display:inline"><rect
       style="opacity:1;fill:url(#linearGradient3728);stroke:none;stroke-width:16.5279;stroke-linecap:round;stroke-linejoin:round;stroke-dasharray:none;stroke-opacity:1"
       id="rect3727"
       width="1024"
       height="1024"
       x="0"
       y="0"
       ry="0" /><g
       id="g3738"
       style="display:inline"><circle
         style="opacity:1;fill:#074268;fill-opacity:1;stroke:none;stroke-width:8.74758;stroke-dasharray:none;stroke-opacity:1"
         id="circle3715"
         r="317.39664"
         cy="529.02484"
         cx="496.74933" /><circle
         style="opacity:1;fill:#e44d45;fill-opacity:1;stroke:url(#linearGradient3715);stroke-width:8.076;stroke-dasharray:none;stroke-opacity:1"
         id="circle3714"
         r="293.02908"
         cy="529.02484"
         cx="496.74933" /><circle
         style="opacity:1;fill:#fdefe0;fill-opacity:1;stroke:#ac302a;stroke-width:8.076;stroke-dasharray:none;stroke-opacity:1"
         id="circle3713"
         cx="496.74933"
         cy="529.02484"
         r="212.40596" /><circle
         style="opacity:1;fill:#e44d45;fill-opacity:1;stroke:#ac302a;stroke-width:8.076;stroke-dasharray:none;stroke-opacity:1"
         id="circle3711"
         cx="496.74933"
         cy="529.02484"
         r="118.50725" /><circle
         style="fill:#ac302a;fill-opacity:1;stroke:none;stroke-width:0.110533"
         id="path3711"
         cx="496.74933"
         cy="529.02484"
         r="41.512768" /></g><g
       id="g3770"
       style="display:none"><path
         id="path3790"
         style="color:#000000;display:inline;fill:#03355a;stroke-width:1.01177;stroke-linecap:round;stroke-linejoin:round;-inkscape-stroke:none"
         d="m 754.11719,143.04883 c -5.99205,0.12511 -11.73554,2.66668 -15.85352,7.10156 l -47.3457,50.99219 h 0.002 c -13.47892,14.51714 -19.29459,34.54484 -15.67578,53.99218 l 8.49414,45.64258 a 6.9814762,6.9579465 1.6325259e-5 0 0 0.0157,0.0781 c 0.0869,0.43945 0.19948,0.86643 0.3125,1.29297 L 481.17396,512.07424 a 22.841742,22.764759 1.6325259e-5 0 0 0.60352,32.1875 22.841742,22.764759 1.6325259e-5 0 0 32.29687,-0.60352 L 716.03321,334.70313 c 1.3189,0.50722 2.6853,0.9315 4.14062,1.16796 a 6.9814762,6.9579465 1.6325259e-5 0 0 0.082,0.0117 l 45.83008,6.89844 c 19.69372,2.96515 39.65358,-3.51787 53.8125,-17.47852 l 49.39257,-48.70312 c 12.29241,-12.12082 5.98668,-33.79836 -10.90429,-37.48828 L 815.1738,229.6699 a 6.9814762,6.9579465 1.6325259e-5 0 0 -0.0102,-0.002 c -9.37777,-2.03466 -18.99752,-1.63183 -28.04492,0.92187 2.24995,-9.08029 2.32396,-18.65741 -0.0371,-27.91015 a 6.9814762,6.9579465 1.6325259e-5 0 0 -10e-6,-0.002 l -10.96484,-42.94727 c -2.30702,-9.03458 -10.10866,-15.69628 -19.41992,-16.58594 l -0.002,1e-5 c -0.86219,-0.0822 -1.72213,-0.11359 -2.57812,-0.0957 z" /><g
         id="g3769"
         transform="matrix(1.0134388,-0.00875832,0.00878794,1.0100232,-10.729537,-0.03273192)"
         style="display:inline;fill:#2e71b0;fill-opacity:1"><path
           id="path3766"
           style="opacity:1;fill:#2e71b0;fill-opacity:1;stroke:none;stroke-width:13.776;stroke-linecap:round;stroke-linejoin:round;stroke-opacity:1"
           d="m 811.95639,324.25142 49.15274,-47.79406 a 15.103341,15.103341 74.331528 0 0 -7.16739,-25.55278 l -42.55571,-9.71539 a 50.164336,50.164336 163.87998 0 0 -46.69865,13.49655 l -53.06955,53.25541 a 14.213712,14.213712 71.993326 0 0 7.82339,24.06836 l 45.16052,7.22288 a 55.381717,55.381717 162.44487 0 0 47.35465,-14.98097 z"
           transform="matrix(0.8,0,0,0.8,157.31882,57.98552)" /><path
           id="path3767"
           style="opacity:1;fill:#2e71b0;fill-opacity:1;stroke:none;stroke-width:13.776;stroke-linecap:round;stroke-linejoin:round;stroke-opacity:1"
           d="m 742.73268,159.81175 -47.15263,50.07875 a 55.155493,55.155493 106.63384 0 0 -14.15978,47.39576 l 7.98782,45.26169 a 14.155882,14.155882 17.08484 0 0 24.09271,7.4049 l 52.55189,-54.08138 a 49.961391,49.961391 105.19856 0 0 12.69207,-46.7192 L 768.2931,166.54009 a 15.042,15.042 14.747568 0 0 -25.56042,-6.72834 z"
           transform="matrix(0.8,0,0,0.8,146.07583,46.935717)" /><path
           style="display:inline;opacity:1;fill:#2e71b0;fill-opacity:1;stroke:#2e71b0;stroke-width:13.776;stroke-linecap:round;stroke-linejoin:round;stroke-dasharray:none;stroke-opacity:1"
           d="M 497.04275,526.97094 699.49818,320.40773"
           id="path3768" /><path
           id="path3769"
           style="display:inline;opacity:1;fill:#2e71b0;fill-opacity:1;stroke:none;stroke-width:13.776;stroke-linecap:round;stroke-linejoin:round;stroke-opacity:1"
           d="m 811.95639,324.25142 49.15274,-47.79406 a 15.103341,15.103341 74.331528 0 0 -7.16739,-25.55278 l -42.55571,-9.71539 a 50.164336,50.164336 163.87998 0 0 -46.69865,13.49655 l -53.06955,53.25541 a 14.213712,14.213712 71.993326 0 0 7.82339,24.06836 l 45.16052,7.22288 a 55.381717,55.381717 162.44487 0 0 47.35465,-14.98097 z"
           transform="matrix(0.8,0,0,0.8,157.31882,57.98552)" /></g></g><g
       id="g3812"
       style="display:none"><circle
         style="display:none;opacity:1;fill:#1a1a1a;fill-opacity:1;stroke:none;stroke-width:8.74758;stroke-dasharray:none;stroke-opacity:1"
         id="circle3809"
         r="317.39664"
         cy="529.02484"
         cx="496.74933" /><path
         id="path3812"
         style="color:#000000;display:inline;opacity:0.25;fill:#1a1a1a;stroke-width:1.01177;stroke-linecap:round;stroke-linejoin:round;-inkscape-stroke:none"
         d="m 786.55242,166.75652 c -5.98051,-0.3922 -11.92182,1.6445 -16.40697,5.70766 l -51.56754,46.71839 0.002,1.7e-4 c -14.68085,13.30042 -22.20231,32.75186 -20.2744,52.43886 l 4.52562,46.20514 a 6.9814762,6.9579465 4.9481608 0 0 0.009,0.0792 c 0.0486,0.44531 0.12401,0.88041 0.19982,1.3151 l -220.2435,191.64311 a 22.841742,22.764759 4.9481608 0 0 -2.17503,32.11961 22.841742,22.764759 4.9481608 0 0 32.22856,2.18447 L 732.07941,354.41165 c 1.27023,0.6191 2.59494,1.15964 4.02444,1.52075 a 6.9814762,6.9579465 4.9481608 0 0 0.0807,0.0188 l 45.06426,10.82575 c 19.36456,4.65277 39.80923,-0.0845 55.11954,-12.77182 l 53.40934,-44.2613 c 13.29206,-11.01538 8.87962,-33.15603 -7.63013,-38.28911 l -42.23749,-13.13351 a 6.9814762,6.9579465 4.9481608 0 0 -0.01,-0.003 c -9.16733,-2.83596 -18.78597,-3.26437 -28.01992,-1.50056 3.02477,-8.85238 3.92457,-18.38742 2.3704,-27.80934 a 6.9814762,6.9579465 4.9481608 0 0 1.6e-4,-0.002 l -7.21959,-43.73297 c -1.51916,-9.1999 -8.71712,-16.5097 -17.91695,-18.19918 l -0.002,-1.6e-4 c -0.85188,-0.15626 -1.70591,-0.26171 -2.56026,-0.31771 z" /></g><circle
       style="display:inline;opacity:0.25;fill:#1a1a1a;fill-opacity:1;stroke:none;stroke-width:8.74758;stroke-dasharray:none;stroke-opacity:1"
       id="circle3812"
       r="317.39664"
       cy="529.02484"
       cx="496.74933"
       clip-path="url(#clipPath3814)" /><g
       id="g3797"
       style="display:inline"><path
         id="path3792"
         style="color:#000000;display:inline;fill:#03355a;stroke-width:1.01177;stroke-linecap:round;stroke-linejoin:round;-inkscape-stroke:none"
         d="m 754.11719,143.04883 c -5.99205,0.12511 -11.73554,2.66668 -15.85352,7.10156 l -47.3457,50.99219 h 0.002 c -13.47892,14.51714 -19.29459,34.54484 -15.67578,53.99218 l 8.49414,45.64258 a 6.9814762,6.9579465 1.6325259e-5 0 0 0.0157,0.0781 c 0.0869,0.43945 0.19948,0.86643 0.3125,1.29297 L 481.17396,512.07424 a 22.841742,22.764759 1.6325259e-5 0 0 0.60352,32.1875 22.841742,22.764759 1.6325259e-5 0 0 32.29687,-0.60352 L 716.03321,334.70313 c 1.3189,0.50722 2.6853,0.9315 4.14062,1.16796 a 6.9814762,6.9579465 1.6325259e-5 0 0 0.082,0.0117 l 45.83008,6.89844 c 19.69372,2.96515 39.65358,-3.51787 53.8125,-17.47852 l 49.39257,-48.70312 c 12.29241,-12.12082 5.98668,-33.79836 -10.90429,-37.48828 L 815.1738,229.6699 a 6.9814762,6.9579465 1.6325259e-5 0 0 -0.0102,-0.002 c -9.37777,-2.03466 -18.99752,-1.63183 -28.04492,0.92187 2.24995,-9.08029 2.32396,-18.65741 -0.0371,-27.91015 a 6.9814762,6.9579465 1.6325259e-5 0 0 -10e-6,-0.002 l -10.96484,-42.94727 c -2.30702,-9.03458 -10.10866,-15.69628 -19.41992,-16.58594 l -0.002,1e-5 c -0.86219,-0.0822 -1.72213,-0.11359 -2.57812,-0.0957 z" /><g
         id="g3796"
         transform="matrix(1.0134388,-0.00875832,0.00878794,1.0100232,-10.729537,-0.03273192)"
         style="display:inline;fill:#2e71b0;fill-opacity:1"><path
           id="path3793"
           style="opacity:1;fill:#2e71b0;fill-opacity:1;stroke:none;stroke-width:13.776;stroke-linecap:round;stroke-linejoin:round;stroke-opacity:1"
           d="m 811.95639,324.25142 49.15274,-47.79406 a 15.103341,15.103341 74.331528 0 0 -7.16739,-25.55278 l -42.55571,-9.71539 a 50.164336,50.164336 163.87998 0 0 -46.69865,13.49655 l -53.06955,53.25541 a 14.213712,14.213712 71.993326 0 0 7.82339,24.06836 l 45.16052,7.22288 a 55.381717,55.381717 162.44487 0 0 47.35465,-14.98097 z"
           transform="matrix(0.8,0,0,0.8,157.31882,57.98552)" /><path
           id="path3794"
           style="opacity:1;fill:url(#linearGradient3751);fill-opacity:1;stroke:none;stroke-width:13.776;stroke-linecap:round;stroke-linejoin:round;stroke-opacity:1"
           d="m 742.73268,159.81175 -47.15263,50.07875 a 55.155493,55.155493 106.63384 0 0 -14.15978,47.39576 l 7.98782,45.26169 a 14.155882,14.155882 17.08484 0 0 24.09271,7.4049 l 52.55189,-54.08138 a 49.961391,49.961391 105.19856 0 0 12.69207,-46.7192 L 768.2931,166.54009 a 15.042,15.042 14.747568 0 0 -25.56042,-6.72834 z"
           transform="matrix(0.8,0,0,0.8,146.07583,46.935717)" /><path
           style="display:inline;opacity:1;fill:#2e71b0;fill-opacity:1;stroke:url(#linearGradient3732);stroke-width:13.776;stroke-linecap:round;stroke-linejoin:round;stroke-dasharray:none;stroke-opacity:1"
           d="M 497.04275,526.97094 699.49818,320.40773"
           id="path3795" /></g></g></g></svg>
